<svg xmlns="http://www.w3.org/2000/svg" viewBox="0 0 95.74 220.89"><defs><style>.cls-1{fill:#edd41b;}.cls-2{fill:#bfe4ee;}.cls-3{fill:#eaf1f4;}.cls-4{fill:#75b459;}.cls-5{fill:#4c3325;}.cls-6{fill:#a6bcd7;}.cls-7{fill:#2660aa;}.cls-8{fill:#5686da;}.cls-9{fill:#999;}</style></defs><g id="Calque_2" data-name="Calque 2"><g id="Calque_1-2" data-name="Calque 1"><path class="cls-1" d="M95.74,103.78a25.54,25.54,0,0,0-4.21-8.9c-2.3-3.08-3.76-3.51-7.66-7.32S77.13,81,75.53,77c-.85-2.12-2.16-6.57-.51-13.11-9,.06-45.14.06-54.17,0,1.65,6.54.35,11-.51,13.11-1.6,4-4.4,6.71-8.34,10.55S6.64,91.8,4.34,94.88a25.72,25.72,0,0,0-4.21,8.9H.39a8.89,8.89,0,0,0-.39,2.6v105.7a8.8,8.8,0,0,0,8.81,8.81H86.94a8.8,8.8,0,0,0,8.8-8.81V106.38a8.57,8.57,0,0,0-.39-2.6Z"/><path class="cls-2" d="M63.43,42.68V35.47h-31v7.21A13.22,13.22,0,0,0,20.83,55.79V63.9H75V55.79A13.22,13.22,0,0,0,63.43,42.68Z"/><rect class="cls-3" x="20.83" width="54.19" height="35.47" rx="9.53"/><rect class="cls-3" x="15.12" y="114.21" width="65.51" height="90.04" rx="8.81"/><path class="cls-4" d="M72.84,119H22.9a4.28,4.28,0,0,0-4.28,4.28v71.84a4.28,4.28,0,0,0,4.28,4.28H72.84a4.27,4.27,0,0,0,4.28-4.28V123.31A4.27,4.27,0,0,0,72.84,119Zm.32,76.77H22.93V123H73.16Z"/><circle class="cls-1" cx="58.18" cy="177.44" r="2.31"/><circle class="cls-1" cx="50.38" cy="181.44" r="2.31"/><circle class="cls-1" cx="50.43" cy="190.7" r="2.31"/><circle class="cls-1" cx="42.56" cy="191.14" r="2.31"/><circle class="cls-1" cx="35.99" cy="186.62" r="2.31"/><circle class="cls-1" cx="45.29" cy="176.05" r="2.31"/><circle class="cls-5" cx="51.97" cy="174.8" r="2.31"/><circle class="cls-5" cx="45.14" cy="185.85" r="2.31"/><circle class="cls-5" cx="61.5" cy="182.97" r="2.31"/><circle class="cls-5" cx="35.04" cy="179.98" r="2.31"/><circle class="cls-1" cx="55.65" cy="185.32" r="2.31"/><circle class="cls-1" cx="40.44" cy="181.56" r="2.31"/><path class="cls-6" d="M35,131.15c1.79-.31,5-.88,8,.89a8.39,8.39,0,0,1,2.58,2.43v-5.22a3.53,3.53,0,0,0-.34-.24c-3.46-2.19-8.53-.16-9,0a9.69,9.69,0,0,0-3.69,2.52c-.1.11-.25.29-.43.53l.38-.19A12.18,12.18,0,0,1,35,131.15Z"/><path class="cls-7" d="M30.17,137.93a9.83,9.83,0,0,0,15.16,7.63l.25-.19v-10.9A8.39,8.39,0,0,0,43,132c-3-1.77-6.19-1.2-8-.89a12.18,12.18,0,0,0-2.51.75l-.38.19A9.24,9.24,0,0,0,30.17,137.93Z"/><path class="cls-8" d="M45.33,145.56a9.83,9.83,0,0,1-15.16-7.63,9.24,9.24,0,0,1,2-5.84,10.77,10.77,0,0,0-1.52.92c-.34.25-3.27,2.48-3.72,5.83-.54,4,2.83,7.09,4.22,8.36s4.65,4.24,8.89,3.47a9,9,0,0,0,5.17-3.19c.15-.17.28-.34.41-.52v-1.59Z"/><path class="cls-3" d="M40.54,139.4v.43a24.41,24.41,0,0,1-2,2,8.41,8.41,0,0,1-1.81,1.23,3.88,3.88,0,0,1-1.71.44,2.49,2.49,0,0,1-1.23-.29,1.78,1.78,0,0,1-.77-.83,2.86,2.86,0,0,1-.26-1.29,4.65,4.65,0,0,1,.18-1.24,6.81,6.81,0,0,1,.55-1.33,11.73,11.73,0,0,1,.88-1.39c.34-.47.75-1,1.21-1.5a14.35,14.35,0,0,1,1.44-1.4,9.81,9.81,0,0,1,1.28-.93,5.92,5.92,0,0,1,1.07-.5,2.72,2.72,0,0,1,.81-.17,1.06,1.06,0,0,1,.57.16,1,1,0,0,1,.35.46,1.76,1.76,0,0,1,.13.71,3.49,3.49,0,0,1-.51,1.66,9.42,9.42,0,0,1-1.27,1.76,11.61,11.61,0,0,1-1.45,1.4,2.14,2.14,0,0,1-1,.53.52.52,0,0,1-.38-.16.48.48,0,0,1-.18-.36,1.62,1.62,0,0,1,.4-.92,9.08,9.08,0,0,1,.87-1c.32-.3.51-.44.57-.44s0,0,0,0a.52.52,0,0,1-.07.2,1.32,1.32,0,0,0-.07.18,0,0,0,0,0,0,.05c.08,0,.3-.2.65-.6a8.69,8.69,0,0,0,1-1.32,2.46,2.46,0,0,0,.45-1.19.46.46,0,0,0-.08-.29.31.31,0,0,0-.25-.11,2.81,2.81,0,0,0-1.41.75,14.34,14.34,0,0,0-1.92,1.91,13.52,13.52,0,0,0-1.65,2.4,4.74,4.74,0,0,0-.66,2.17,2.21,2.21,0,0,0,.16.91,1.24,1.24,0,0,0,.47.56,1.41,1.41,0,0,0,.76.2,4.25,4.25,0,0,0,2.17-.75A15.23,15.23,0,0,0,40.54,139.4Z"/><path class="cls-3" d="M43.53,139.68l-1.18,1c-.56.49-.93.74-1.12.74s-.36-.2-.54-.6a2.42,2.42,0,0,1-.29-1,1.56,1.56,0,0,1,.12-.64,3.85,3.85,0,0,1,.4-.67,8.46,8.46,0,0,1,.77-1,5.44,5.44,0,0,1,.65-.6,1,1,0,0,1,.4-.22.5.5,0,0,1,.35.19.57.57,0,0,1,.17.38.86.86,0,0,1-.19.41,5.88,5.88,0,0,1-.57.7c-.26.28-.63.62-1.09,1l-.13.36a.38.38,0,0,0-.05.19.16.16,0,0,0,.18.18,2.52,2.52,0,0,0,.86-.47,11,11,0,0,0,1.49-1.26c.21-.21.38-.39.51-.55s.26-.31.37-.45a3.31,3.31,0,0,1,.28-.31.32.32,0,0,1,.19-.11.24.24,0,0,1,.26.13,1,1,0,0,1,.09.47.91.91,0,0,1-.16.45c-.1.18-.3.48-.59.91s-.58.88-.87,1.34-.58,1-.88,1.55l.4-.39.82-.79.71-.66c.18-.16.41-.36.69-.58v.45c-.59.64-1.13,1.24-1.61,1.81s-.86,1-1.12,1.38l-.46.6c-.12.15-.23.3-.32.43a1.87,1.87,0,0,1-.24.31c-.06.08-.11.11-.15.11s-.18-.09-.25-.27a1.46,1.46,0,0,1-.11-.49.74.74,0,0,1,.07-.34A37.27,37.27,0,0,1,43.53,139.68Z"/><path class="cls-9" d="M52.74,140.52a1.49,1.49,0,0,0-.43-.48,2.51,2.51,0,0,0-.65-.34,4.45,4.45,0,0,0-.76-.2,6,6,0,0,1-2.17-.75.61.61,0,0,1-.19-.2.55.55,0,0,1-.09-.29,3,3,0,0,1,.17-1,2.08,2.08,0,0,1,.43-.8,3.56,3.56,0,0,1,1.54-.84,8.07,8.07,0,0,1,2.5-.36,4.73,4.73,0,0,1,1.28.13c.31.08.46.21.46.39a1.51,1.51,0,0,1-.12.67.79.79,0,0,1-.25.32c-.1.05-.25.12-.48.21a4.81,4.81,0,0,0-.63.26,3.74,3.74,0,0,0-.46.27.79.79,0,0,1-.24.12s-.06,0-.06,0,.07-.17.21-.3a2.11,2.11,0,0,1,.5-.35c.22-.11.32-.18.32-.21s-.12-.08-.35-.08a10.05,10.05,0,0,0-2,.19,4.7,4.7,0,0,0-1.43.51c-.35.2-.52.41-.52.63a.31.31,0,0,0,.21.29l1,.28a9.24,9.24,0,0,1,1.32.45,4,4,0,0,1,1.24.74,1.18,1.18,0,0,1,.4.87,1.52,1.52,0,0,1-.16.66,1.86,1.86,0,0,1-.46.6,2.57,2.57,0,0,1-.7.46,5.18,5.18,0,0,1-.86.27,9,9,0,0,1-1.12.2,9.32,9.32,0,0,1-1.15.07,5.6,5.6,0,0,1-1.63-.19c-.41-.12-.61-.32-.61-.57a1.25,1.25,0,0,1,.21-.54,1.13,1.13,0,0,1,.49-.5A1.67,1.67,0,0,1,48,141c.15,0,.23,0,.23.06s0,0,0,0l0,0,0,0-.18.07-.12.06a.07.07,0,0,0,0,.07c0,.08.4.12,1.19.12a15.47,15.47,0,0,0,1.7-.08,4.77,4.77,0,0,0,1.18-.27A3.42,3.42,0,0,0,52.74,140.52Z"/><path class="cls-9" d="M55.08,139.34a7,7,0,0,1,1.7-1.19,3.42,3.42,0,0,1,1.27-.38.32.32,0,0,1,.23.1.73.73,0,0,1,.16.23.58.58,0,0,1,.06.2.15.15,0,0,1-.08.15l-.28.12c0,.06.06.14.1.24a1.33,1.33,0,0,1,.1.23.53.53,0,0,1,0,.16,1.38,1.38,0,0,1-.28.52c-.19.25-.32.43-.4.55a.87.87,0,0,0-.11.44c0,.29.13.43.39.43a2.49,2.49,0,0,0,1.27-.76v.35c-1,1.08-1.67,1.63-2.09,1.63a.35.35,0,0,1-.32-.15.78.78,0,0,1-.1-.44,4.13,4.13,0,0,1,.33-1.32c-.56.62-1,1.07-1.25,1.33a1.15,1.15,0,0,1-.68.4c-.08,0-.19-.08-.31-.22a2.2,2.2,0,0,1-.34-.57,1.83,1.83,0,0,1-.15-.73,1.87,1.87,0,0,1,0-.45,1.28,1.28,0,0,1,.21-.37A5,5,0,0,1,55.08,139.34Zm2.76-.64a12.8,12.8,0,0,0-2.14,1.17,1.32,1.32,0,0,0-.64,1,.68.68,0,0,0,.07.31.19.19,0,0,0,.17.12.77.77,0,0,0,.23-.08,4.4,4.4,0,0,0,1.1-.94A18.63,18.63,0,0,0,57.84,138.7Z"/><path class="cls-9" d="M61.91,140a19.24,19.24,0,0,1-1.27,1.57c-.29.31-.53.47-.71.47a.59.59,0,0,1-.41-.18,1.29,1.29,0,0,1-.28-.49,2.07,2.07,0,0,1-.1-.66,1.82,1.82,0,0,1,0-.42,1.33,1.33,0,0,1,.17-.4,3.36,3.36,0,0,1,.32-.49c.13-.17.29-.37.48-.58s.22-.25.29-.35a.63.63,0,0,1,.24-.18.8.8,0,0,1,.36-.05,1,1,0,0,1,.35.05c.12,0,.17.06.17.1a1,1,0,0,1-.17.37,4.3,4.3,0,0,1-.55.66,7.44,7.44,0,0,1-.87.77,2,2,0,0,0-.11.52c0,.16.06.25.19.25a.49.49,0,0,0,.23-.12c.11-.08.29-.23.55-.46l.69-.6a4,4,0,0,0,.52-.58c.2-.26.36-.46.48-.59.28-.3.48-.49.58-.58a.51.51,0,0,1,.3-.14.2.2,0,0,1,.19.09.85.85,0,0,1,0,.35,1,1,0,0,1,0,.2,1.2,1.2,0,0,1-.1.19l-.29.44-.52.75a2.69,2.69,0,0,0-.28.5,1.15,1.15,0,0,0-.12.41c0,.2.07.3.23.3a.91.91,0,0,0,.46-.16c.17-.11.44-.3.79-.58v.39l-1,.9a5.71,5.71,0,0,1-.56.43.94.94,0,0,1-.45.14c-.33,0-.49-.19-.49-.57a1.73,1.73,0,0,1,.15-.6C61.54,140.81,61.7,140.45,61.91,140Z"/><path class="cls-9" d="M67.22,140.38v.39c-.42.4-.75.72-1,.94a4.17,4.17,0,0,1-.73.52,1.37,1.37,0,0,1-.66.18.82.82,0,0,1-.58-.25,1.63,1.63,0,0,1-.42-.66,2.43,2.43,0,0,1-.15-.86,1.38,1.38,0,0,1,.18-.7,3.81,3.81,0,0,1,.67-.79,6.58,6.58,0,0,1,1.09-.89,1.67,1.67,0,0,1,.79-.31.48.48,0,0,1,.35.14.49.49,0,0,1,.15.36,1.17,1.17,0,0,1-.19.53,3,3,0,0,1-.43.59c-.16.17-.28.25-.37.25s-.15,0-.15-.16v-.09a.19.19,0,0,0,0-.08s0-.07,0-.07a.13.13,0,0,0-.12,0l-.79.57a2.15,2.15,0,0,0-.34.33.59.59,0,0,0-.12.35.71.71,0,0,0,.22.55.74.74,0,0,0,.57.22,2,2,0,0,0,.87-.28A10.4,10.4,0,0,0,67.22,140.38Z"/><path class="cls-9" d="M68.12,140.58v.14a.76.76,0,0,0,.16.53.56.56,0,0,0,.44.19,1.43,1.43,0,0,0,.59-.13,3.11,3.11,0,0,0,.6-.35c.2-.15.45-.34.73-.59v.35a6.88,6.88,0,0,1-1.22,1.21,2,2,0,0,1-1.16.41,1,1,0,0,1-.81-.39,1.8,1.8,0,0,1-.3-1.1,2.11,2.11,0,0,1,.28-1.09,4.42,4.42,0,0,1,.92-1,4,4,0,0,1,.87-.56A1.92,1.92,0,0,1,70,138a.71.71,0,0,1,.43.12.47.47,0,0,1,.16.37,1.16,1.16,0,0,1-.28.73,3,3,0,0,1-.82.71A8.29,8.29,0,0,1,68.12,140.58Zm0-.38a3,3,0,0,0,.89-.5,2.61,2.61,0,0,0,.55-.57.89.89,0,0,0,.17-.4c0-.09,0-.14-.12-.14a.8.8,0,0,0-.33.14,2.36,2.36,0,0,0-.48.34,2.63,2.63,0,0,0-.43.5A1.89,1.89,0,0,0,68.17,140.2Z"/></g></g></svg>